# xmcd
#
# Track frame offsets:
#	150
#	39507
#	62927
#	91257
#	110922
#	130690
#	169390
#	189030
#	229557
#	243550
#	284540
#	305840
#
# Disc length: 4241
#
# Revision: 2
# Processed by: cddbd v1.5.1PL0 Copyright (c) Steve Scherf et al.
# Submitted via: CDValet v3.31 - Copyright (c) 1997 Greg Leichner
# Normalized: r1:DSETVAR1
#
DISCID=aa108f0c
DTITLE=Various Artist - Steppers Gold (Volume 2)
DYEAR=1900
DGENRE=
TTITLE0=Loggins and Messina - Pathway To Glory
TTITLE1=David Oliver - Ms
TTITLE2=Donald Byrd - Places and spaces
TTITLE3=Blackbyrds - Soft and Easy
TTITLE4=Donald Byrd - Dominoes
TTITLE5=Down To The Bone - Staten Island Groove
TTITLE6=Al Hudson - Don't Know What You're Missing
TTITLE7=James Brown - Drive Your Funky Soul
TTITLE8=Gladys Knight - Everbody Needs Love
TTITLE9=Greg Perry - Come Fly With Me (Let's Go Away)
TTITLE10=Curtis Mayfield - Hey Baby (Give It All To Me)
TTITLE11=George McGregor - Temptation Is Hard To Fight
EXTD=
EXTT0=
EXTT1=
EXTT2=
EXTT3=
EXTT4=
EXTT5=
EXTT6=
EXTT7=
EXTT8=
EXTT9=
EXTT10=
EXTT11=
PLAYORDER=
